<svg id="Layer_1" data-name="Layer 1" xmlns="http://www.w3.org/2000/svg" viewBox="0 0 1838.54 663.31"><defs><style>.cls-1{fill:#fff;}</style></defs><path class="cls-1" d="M865.92,804.35a20,20,0,0,0-6.32.81,881.67,881.67,0,0,0-93.9,27.7c-22.94,8.21-45.32,18.31-65.59,31.92a240.74,240.74,0,0,0-23.73,18c-1.77,1.56-3.72,3.2-4.21,5.66,2.39,14.8,16.49,22.78,28.67,29,20,9.21,42.55,14.49,64.6,12-6.56-5.58-15.69-6.47-22.63-11.4-2.82-2.12-2.89-5.93-3.64-9-6.78,1.34-13.21,3.94-19.92,5.5,6.18-3.81,12.91-6.62,19.34-10,34.4-14.75,71.58-21.1,108.46-26.15,25.7-2.81,51.94-3.7,76.8-11.46-2-5.58-3-13.76-10.24-14.63-15.49-8.09-22.91-24.77-31.84-38.85a18.78,18.78,0,0,0-15.85-9Z" transform="translate(-104.73 -692.34)"/><path class="cls-1" d="M1184.13,804.37c-4.92-.08-9.84,1.37-13.36,5-5,5.18-7.86,11.88-11.66,17.87-5.45,9.48-12.49,18.28-21.81,24.19-2.4,1.57-6,1.28-7.47,4.15a33.87,33.87,0,0,0-4.23,11.5c24.89,7.42,51,8.21,76.6,11.41,40.63,5.12,81.72,12.57,118.74,30.87,3.14,1.7,6.34,3.41,9.47,5.16-6.74-1.74-13.37-3.93-20.05-5.87-1.1,3.35-1.22,7.56-4.5,9.67-6.84,4.61-15.78,5.46-22,11.06,10.54,1.41,21.22.42,31.62-1.53,20.25-3.94,40.9-11.47,55.68-26.4l.18.06a31.15,31.15,0,0,0,5.68-15c-23.7-21.94-52.35-38-82.39-49.54-33.82-13.05-68.74-23-103.93-31.62a25.07,25.07,0,0,0-6.58-1Z" transform="translate(-104.73 -692.34)"/><path class="cls-1" d="M1024.64,692.35a3,3,0,0,0-3.11,2.8c-5.84,19.24-11,39.15-22.07,56.25a44.79,44.79,0,0,1-16.16,14.93c-15.63,8.93-33,13.87-50.12,19.22a15.67,15.67,0,0,0-6.81,4.36,18.85,18.85,0,0,0,6.56,4.07c18.35,5.86,37.35,11,53.78,21.44,9.73,6,15.43,16.34,20.19,26.38h.14c6.09,14,10.24,28.72,14.71,43.29,1.26,4.21,6.3,1.76,6.38-1.7a406.06,406.06,0,0,1,13.67-41.13l-.36-1,1.13-.33c3.09-5.29,5.51-11,9.39-15.79,4.74-6.55,11.76-10.81,18.75-14.57q3.82-1.83,7.7-3.63c12.23-5.07,24.88-9,37.51-12.86,2.5-1.1,6.65-1.86,5.93-5.48a22.53,22.53,0,0,0-7.94-3.81c-16.61-5.07-33.46-10.09-48.56-18.84a44.5,44.5,0,0,1-16-15.2c-10.7-17-15.93-36.54-21.61-55.56a3.28,3.28,0,0,0-3.13-2.88Z" transform="translate(-104.73 -692.34)"/><path class="cls-1" d="M280.59,818.88a173.5,173.5,0,0,0-34.85,3.3c-39.83,8-75.73,31.69-100.5,63.67a193,193,0,0,0-31.06,59.24,200.72,200.72,0,0,0,3.59,132.18l.18.09A185.13,185.13,0,0,0,136.53,1114c1.1,1.09,1.64,3.63,3.45,3.58l-.82.2a186.5,186.5,0,0,0,36.43,39.15l.47,0a158.47,158.47,0,0,0,43.64,25.27c22.22,8.83,46.36,12.16,70.17,11,38.68-1.45,78.36-9.05,111.78-29.36,10.24-5.28,19.47-12.8,27.48-21.12,0-8.24,0-16.48.12-24.7,0-12.93.22-25.86-.11-38.77.49-8.45-.84-17.25,2.58-25.28l-.3.4A35.16,35.16,0,0,1,447,1039.19c6-3.32,13.63-3.37,19-7.85-.05-.9-.16-2.7-.21-3.61-4.47-.62-9-.38-13.44-.39q-82,0-164,0c-3.25-.83-7.32,2.2-4.81,5.56,3.87,3.75,9.7,4.27,14.64,5.88,14.77,3.07,29.13,10,38.47,22.12,2.93,5.61,5.89,11.5,5.89,18,.19,19.25-.17,38.49.13,57.74-.71,9.87-.76,20.13-5,29.29-7.74,8.48-20.39,4.87-30.5,5.39a91,91,0,0,1-47-22.15c-12.21-10.81-22.05-24.1-29.72-38.46a199.83,199.83,0,0,1-15.83-41c-2-8.27-3.61-16.62-5-25a281.79,281.79,0,0,1-2-45.07A253,253,0,0,1,217,943.75l.23,0a178.4,178.4,0,0,1,27.47-55.32c8-9.75,16.81-18.95,27.42-25.84,17.48-11.87,39.81-16.86,60.51-11.8C355,855.9,373.53,871.18,387.3,889A175.13,175.13,0,0,1,409,928a205.57,205.57,0,0,1,6.59,19.68c1.25,4.08,1.79,8.75,5.12,11.8,5.5-10.27,4.35-22.42,5.61-33.66.63-11.29.91-22.6.93-33.89-.41-11.37.21-23.12-3.47-34.05-20.41.53-39.79-6.89-57.43-16.56a178.9,178.9,0,0,0-85.78-22.47Z" transform="translate(-104.73 -692.34)"/><path class="cls-1" d="M452.1,936.59c-.94,0-1.88,0-2.82,0,7.26,7.2,17.07,12.13,22,21.48,7,13.32,7,28.86,6.76,43.54.18,12.43,0,24.87.07,37.31,0,13.38,0,26.73,0,40.09a192.56,192.56,0,0,1,22.23-18.77A228.13,228.13,0,0,1,535,1039.89q0-18.35,0-36.66c.16-7-.33-14,.22-21,.82-6.57,7.32-11.41,13.85-10.87,13.64.05,27.28-.13,40.91.12,11.38.34,22,5.44,30.58,12.75,10.4,9.74,17.57,22.45,22.09,35.87.44-.52,1.32-1.61,1.77-2.13,1.62-11.41-.35-23.06-2.1-34.37a248.5,248.5,0,0,0-9.06-31.77c-39.63,0-79.39.45-118.84-4-18.14-2.46-36.06-6.35-53.93-10.29a38.88,38.88,0,0,0-8.39-1Z" transform="translate(-104.73 -692.34)"/><path class="cls-1" d="M605.49,1032.3c-4,0-8.16.5-12.06.82A217.88,217.88,0,0,0,485,1079.89a183.53,183.53,0,0,0-27.9,30.44,176.86,176.86,0,0,0-17.51,30.51,364.38,364.38,0,0,1,35.51-20.57c1-.44,2-.88,3-1.31,0,2,0,4,0,6,.78,10.07-1.35,20-4.71,29.37l.46,1.1-1.36.41c-7,14-19.65,23.79-31.07,34,8.73.27,17.1-2.52,25.59-4.15,22.67-4.86,45.91-6.48,69.06-6.48,35.7,0,71.41-.07,107.1,0a233.76,233.76,0,0,0,10.5-35.73,161.08,161.08,0,0,0,2.53-28.57c-.23-2.44.1-6-2.81-6.91a90.47,90.47,0,0,1-21.17,34.41c-10,9.65-23.38,15.91-37.35,16.2-15.83.1-31.67.08-47.49,0-3.92.2-7-2.36-9.91-4.65-1.28-3-2.71-6.1-2.49-9.45-.07-8.53,0-17,0-25.56.1-7.26,0-14.51,0-21.75,2.52-.65,5-1.3,7.59-1.92q8.28-1.84,16.63-3.45a512.51,512.51,0,0,1,86.74-7.48,26.34,26.34,0,0,0,5-.82,23.86,23.86,0,0,0-9.29-12.09c-5.27-3.1-11.47-4.35-16.56-7.73-8-6.83-6.63-18.64-4.77-27.85-4.48-2.9-9.6-3.66-14.81-3.65Z" transform="translate(-104.73 -692.34)"/><path class="cls-1" d="M861.8,951.82q-25.18,0-50.37.21c-2.53,5,4.51,6.18,7.53,8C831,965.3,834.12,979.91,833,991.81c.05,7.48-.08,15,.06,22.45,0,20.2-.12,40.4,0,60.6.05,6,0,12,0,18l-7.53-9.57c-9.76-12.72-19.79-25.26-29.57-38q-9.13-11.6-18.18-23.23c-5.6-7.18-11.21-14.32-16.77-21.49-12.67-16.28-25.42-32.47-38.09-48.75-20.3.08-40.61-.25-60.91.15l-.07,3.74c5,4,12.16,5.1,15.85,10.81,8,9.91,5.32,23.19,5.85,34.89,0,10.44-.15,20.86,0,31.28-.08,9.35,0,18.72-.05,28.08.07,9.12,0,18.26,0,27.39-.06,13.32.08,26.65-.08,40-.18,9.83,1.15,19.91-1.74,29.47-1.92,3.71-3.92,7.57-7.24,10.24-3.44,3-8,4.07-11.76,6.57-1.87,1-1,3.23-1,4.84,33.59-.17,67.2.16,100.79-.17,1.12-5.31-4.94-6.33-8.38-8.3-6.5-2.74-10.39-9.07-12.69-15.44-2-11.11-.59-22.45-1.13-33.66.13-11.32,0-22.65,0-34,.1-7.27,0-14.54.07-21.81-.05-6.14,0-12.27-.05-18.39.07-8.32,0-16.65,0-25l-.2-3.34c.21-.1.62-.32.82-.43,3.31,4.89,7.1,9.44,10.7,14.11,4.17,5.27,8.25,10.6,12.44,15.86,7.64,9.81,15.24,19.65,23,29.4q9.68,12.52,19.46,25c9.9,12.4,19.35,25.22,29.44,37.46,8.22,11,16.89,21.68,25.21,32.61a147,147,0,0,0,15.54,16.89c8.71,7.36,19.46,12.93,31,13.7-1.57-5.53-5.54-9.9-8-15l-1.12-.47.56-.66c-2-7.14-5-14-6.44-21.34a185.66,185.66,0,0,1-2.41-19.39c-.72-13-.37-26-.49-39,.07-14.43,0-28.85,0-43.29.18-13.48.1-68.25-.05-77-.41-10.47,3.35-22.46,13.46-27.27,3.52-2.1,9.58-2.95,8.92-8.37q-25.17-.22-50.37-.22Z" transform="translate(-104.73 -692.34)"/><path class="cls-1" d="M1016.27,903a90.54,90.54,0,0,0-14,1.13c-23,3.25-44.92,15.37-58.39,34.48a76,76,0,0,0-10.81,23.68l.08.18c-4.07,16.26-1.92,33.55,3.61,49.21l.18,0a84.37,84.37,0,0,0,17.77,28.62H955c9.78,9.68,21.48,17.26,32.87,24.82,23.33,16.87,47.9,32,70.71,49.6a38.36,38.36,0,0,1,12.14,22.22,55.74,55.74,0,0,1-3.44,21.87,38.28,38.28,0,0,1-18.76,18.79c-9.54,4.79-20.48,4.37-30.79,3.15a142.91,142.91,0,0,1-14.53-3.17,103,103,0,0,1-26.41-12.84c-2.82-2.2-5.61-4.4-8.35-6.65l-3.87-3.41c-2.52-2.58-5-5.16-7.47-7.78a168,168,0,0,1-14.11-18.83c-6.86-10-11.13-21.56-18.53-31.14-2.83,10.07-2.74,20.66-2.91,31,.07,3.17.07,6.35.38,9.52a166.56,166.56,0,0,0,3.81,27.76c2.87,11.54,7.25,23.11,15.57,31.86,12.16-7.37,27.62-6.37,40.6-1.78,21.3,6.83,44.06,8.37,66.25,6.14a118.85,118.85,0,0,0,30.1-7.19,75.74,75.74,0,0,0,33-26.19,84.32,84.32,0,0,0,13.5-36.72l.22.13a161.23,161.23,0,0,0,1.19-21.63c-.47-15.36-4.33-30.74-12.43-43.9-5-7.91-11.33-14.87-18-21.4-16.49-13.78-34.72-25.27-52.32-37.58-16-11-32.31-21.51-47.93-33-9.34-7.55-16-19.22-13.82-31.56,1.61-6.79,5-13.47,10.93-17.43,10.39-7.08,23.73-7.28,35.79-6a59.91,59.91,0,0,1,39.77,21.43h.16c6.35,7.71,10,17.19,15.82,25.2,11.32,8.22,23.29,16.58,36.87,20.47.22-6.86-2.57-13.21-4.85-19.52-3.61-9.28-7.31-18.56-11.44-27.61a270.4,270.4,0,0,0-17.56-30.61c-9.24,4.45-19.63,2.51-29.18.35-13.67-3-27.68-5.74-41.7-5.66Z" transform="translate(-104.73 -692.34)"/><path class="cls-1" d="M1403.52,992c-4.35,10.14-18.06,32.82-44.31,50.87-22.51,15.47-39.13,24.89-77.13,39.38-30.28,11.55-65.64,6.57-66.95,40.88-.31,8.14,0,16.29.06,24.45.53,9.22,5.11,19,14,22.86,3.38,1.8,9.7,3.13,7.86,8.3-10.47-.16-20.82,1.2-31.11,2.88-26.7,5.18-50.45,22.31-78.3,21.62,9-8.46,17.79-17.23,23.85-28.09l1-.16-.33-1.09c3-7.74,5.79-15.64,6.14-24q.09-12.4.06-24.77c.12-11.3-.31-22.62.25-33.92.23-.31-.25-14.27-.21-19.9-.08-13.88,0-27.75,0-41.62a66.12,66.12,0,0,1,.33-10.81l-.25-1c-.29-9,0-18-.15-27.05.87-10.85-1.44-23.65-11.42-29.8-3.84-2.82-11.2-3.18-10.89-9.34,33.62-.64,67.26,0,100.9-.33,2.1,5.72-5.38,6.65-8.83,8.9-11.61,5.89-13.85,20.38-12.84,32.11,0,2.71,0,5.44-.09,8.16,0,3.35,0,6.71.07,10.09.21,5.53.32,15,.53,22.26a9.62,9.62,0,0,0,9.32,9.36c25.39.78,54.28-2.58,76-11.19a10.7,10.7,0,0,0,6.3-9.19c0-13.14-.12-26.29.12-39.43-.94-8.9-4.89-18.45-13.46-22.42-3.51-2.11-9.7-3-9-8.38q50.37-.47,100.76,0c2.39,3.82-2.59,5.68-5.2,6.93a23.54,23.54,0,0,0-13.12,11.63c-3.74,6.81-3.29,14.74-3.31,22.22,0,3.68-.06,7.37,0,11a4,4,0,0,0,5.44,3.69C1378.9,1003.5,1392,998.58,1403.52,992Z" transform="translate(-104.73 -692.34)"/><path class="cls-1" d="M1386,1178.62c-33.59.31-67.21.18-100.8,0-1.05-5.39,5.07-6.33,8.58-8.35,8.89-4,13.24-14.06,13.7-23.38-.26-10,0-20,0-29.92,0-3-.06-11.37-.12-16.69-.1-8.61,2.7-18,12.93-24.61,14.23-9.13,30.45-16.7,44-26.26.09,9.39.11,29.88-.17,39.27.22,12,.36,24,0,36,.28,7.88.13,15.79.13,23.68.85,9.11,5.56,18.63,14.42,22.26C1381.76,1172.49,1388.11,1173.66,1386,1178.62Z" transform="translate(-104.73 -692.34)"/><path class="cls-1" d="M1394,1062c-1.44-44,18.21-77.57,53.92-100.64,47.6-30.75,98.62-32.78,151.45-12.89a117.13,117.13,0,0,1,59,48.1c19.61,31.29,24.25,66.16,14.15,102.51-5.74,20.66-15.81,39.31-31.7,52.76-14.21,12-31,23.09-48.47,28.78-32.7,10.63-66.43,11.61-101,4.24-21.14-4.5-39.71-13.73-54.38-26.58-25.57-22.39-43.58-51-43-87.46C1394,1067.89,1394,1065,1394,1062Zm213.42-1.69c-1.85-11.93-3.87-23.83-5.5-35.79C1598.72,1001,1587,982,1569.32,967c-21.45-18.24-51.12-17.85-69.08.14-12.15,12.16-21.45,25.6-27.42,42.49-11.36,32.1-12.53,63.77-3.33,96.09,7.44,26.16,18.63,49.33,45.41,62,24.18,11.42,52.27-1.73,65-17.62C1600.89,1124,1606.25,1092.91,1607.41,1060.32Z" transform="translate(-104.73 -692.34)"/><path class="cls-1" d="M1712.67,1113.49q-19.12,15-38.6,29.47l-2.84-1.64c6.46-12.28,11.68-25.29,19.6-36.88,8.63-12.66,19.21-24.72,30-35.62,9.83-10.29,20.44-20.62,32.37-29.16,42-28.55,85.8-48,135.35-59.39,10.5-2.12,13.85,1,11.49,11.29-4,17.36,2.54,26.89,17.68,31.4,8.08,2.41,16.28,6.12,18,15.72-28.57,5.67-57.17,11.19-85.65,17.3-16.84,3.89-33.41,9.35-49.89,14.54-6.78,2-9.81,6.2-9.56,13.61.54,16.1.42,32.26.25,48.36-.07,11.42,5.63,17.34,15.48,17.12,21.55-.43,42.6-1.23,64.06-3.23,31.25-3,51.43-34.13,63.17-59.82,2.31-4.93,4.27-10,9-15.31.22,3.5,1.15,7.09.57,10.57q-6.86,42-12.5,84.14c-1.37,10.77-6,13.54-13.92,13.65q-101.94,1.53-203.87,3.49c-13,.23-25.94,1.49-41.42,2.34,12.7-10.4,25.29-17.9,33-29S1716.06,1130.75,1712.67,1113.49Z" transform="translate(-104.73 -692.34)"/><path class="cls-1" d="M1935.83,943.61c-1.11-3.13-2.73-6.06-3.25-9.47-4.91-34-40.69-52.65-72.23-43-13.74,4.2-28.41,5.76-42.63,9-17.07,3.83-22.11,9.6-23,25.64-1.22,22.08-2.12,44-2.4,66.1,0,8-4,11.69-10.32,16.53-19.1,14.9-37.89,30.17-56.75,45.37-3.19,2.55-6.41,5-11.75,9.22-.09-5.81-.15-9.4-.2-13q-.6-48.27-.54-96.54c1.61-23.4-11.06-44.27-35.5-46.73a14.31,14.31,0,0,1-5.59-2.26c-.71-.4-.84-1.58-1.83-3.67,3.78-1.16,6.71-2.39,9.52-2.82,82.8-13,164.49-30.82,246.13-49.63,10.8-2.49,15.07-.45,15.92,11.57,1.7,27.76,1.91,54.15-1.56,81.78Z" transform="translate(-104.73 -692.34)"/><path class="cls-1" d="M424.12,1353H370.85v-5.38a66.25,66.25,0,0,0,8.73-1.34q5-1.07,5-2.65a8.23,8.23,0,0,0-.1-1.24,8.8,8.8,0,0,0-.59-1.86l-8.34-20.26H341.81c-.77,1.88-1.63,4.09-2.57,6.61s-1.74,4.78-2.43,6.76a35,35,0,0,0-1.54,5.58,20.52,20.52,0,0,0-.24,2.41q0,2.2,3.34,3.76t11.12,2.23V1353H309.38v-5.38a36.53,36.53,0,0,0,5.13-.72,13.79,13.79,0,0,0,4.52-1.62,17.66,17.66,0,0,0,4.79-4.06,21.55,21.55,0,0,0,3.27-5.72l16-38.8q8-19.44,17.75-42.86h13.78q13.5,33.21,21.15,52.51t13,32a15.69,15.69,0,0,0,2.27,3.76,14.83,14.83,0,0,0,3.93,3.2,15.5,15.5,0,0,0,4.48,1.66,32.9,32.9,0,0,0,4.62.68Zm-51.39-39.56-14.15-35.34-13.94,35.34Z" transform="translate(-104.73 -692.34)"/><path class="cls-1" d="M513.08,1265.25a44.45,44.45,0,0,1,14.47,15.61q5.51,9.75,5.51,23.87,0,12.4-4.93,21.61a43.55,43.55,0,0,1-13,15.05,59.07,59.07,0,0,1-18.78,8.72,83.4,83.4,0,0,1-22,2.86H425v-5.38c1.47,0,3.31-.18,5.51-.41a17.08,17.08,0,0,0,4.41-.83,6.57,6.57,0,0,0,3.45-2.79,8.7,8.7,0,0,0,1-4.23V1270a9.93,9.93,0,0,0-.89-4.24,6.65,6.65,0,0,0-3.52-3.06,20.66,20.66,0,0,0-5.54-1.59c-2-.27-3.46-.46-4.52-.55v-5.37h52a81.88,81.88,0,0,1,17.85,2.13A55.53,55.53,0,0,1,513.08,1265.25ZM499,1335.33A40.57,40.57,0,0,0,504,1322.2a88.79,88.79,0,0,0,1.55-17.54,70.67,70.67,0,0,0-2.07-17.71,41.44,41.44,0,0,0-6.06-13.64,27.84,27.84,0,0,0-10-8.75,28.87,28.87,0,0,0-13.54-3.1c-1.61,0-3.44,0-5.48.1l-4.58.17V1336a13.37,13.37,0,0,0,.65,4.38,8.09,8.09,0,0,0,2.24,3.34,11.12,11.12,0,0,0,3.9,2.24,18.84,18.84,0,0,0,6,.79,28.68,28.68,0,0,0,13.37-2.9A22.86,22.86,0,0,0,499,1335.33Z" transform="translate(-104.73 -692.34)"/><path class="cls-1" d="M630.78,1265.25a44.45,44.45,0,0,1,14.47,15.61q5.5,9.75,5.51,23.87,0,12.4-4.93,21.61a43.57,43.57,0,0,1-13.06,15.05,58.92,58.92,0,0,1-18.77,8.72,83.4,83.4,0,0,1-22,2.86H542.71v-5.38c1.47,0,3.31-.18,5.51-.41a17.08,17.08,0,0,0,4.41-.83,6.61,6.61,0,0,0,3.45-2.79,8.7,8.7,0,0,0,1-4.23V1270a9.93,9.93,0,0,0-.89-4.24,6.65,6.65,0,0,0-3.52-3.06,20.63,20.63,0,0,0-5.55-1.59c-2-.27-3.45-.46-4.51-.55v-5.37h52a81.88,81.88,0,0,1,17.85,2.13A55.62,55.62,0,0,1,630.78,1265.25Zm-14.06,70.08a40.57,40.57,0,0,0,4.93-13.13,88.79,88.79,0,0,0,1.55-17.54,70.67,70.67,0,0,0-2.07-17.71,41.24,41.24,0,0,0-6.07-13.64,27.73,27.73,0,0,0-9.95-8.75,28.9,28.9,0,0,0-13.54-3.1c-1.61,0-3.44,0-5.48.1l-4.58.17V1336a13.37,13.37,0,0,0,.65,4.38,8.09,8.09,0,0,0,2.24,3.34,11.07,11.07,0,0,0,3.89,2.24,18.94,18.94,0,0,0,6,.79,28.71,28.71,0,0,0,13.37-2.9A22.86,22.86,0,0,0,616.72,1335.33Z" transform="translate(-104.73 -692.34)"/><path class="cls-1" d="M703.27,1323H661.51v-15.23h41.76Z" transform="translate(-104.73 -692.34)"/><path class="cls-1" d="M804.22,1266.07a48.37,48.37,0,0,1,11.48,16,51.42,51.42,0,0,1,4.23,21.36,57.89,57.89,0,0,1-3.58,20.33A47,47,0,0,1,806,1340.36a50.7,50.7,0,0,1-16.67,11.27q-9.58,4-22.81,4a57.62,57.62,0,0,1-20.19-3.52,49.87,49.87,0,0,1-16.75-10.2A47.64,47.64,0,0,1,718.22,1326a50.51,50.51,0,0,1-4.2-20.88,55.6,55.6,0,0,1,4.1-21.74,50,50,0,0,1,11.27-16.72,48.94,48.94,0,0,1,16.84-10.5,60.62,60.62,0,0,1,41.35-.11A50.63,50.63,0,0,1,804.22,1266.07Zm-17.71,70a52.11,52.11,0,0,0,4.48-14.22,105.36,105.36,0,0,0,1.38-17.94,110.5,110.5,0,0,0-1.21-16.53,52.58,52.58,0,0,0-4.1-14.32,27.06,27.06,0,0,0-7.85-10.08,19.31,19.31,0,0,0-12.2-3.8q-12.46,0-19,11.84t-6.48,33.44a100.46,100.46,0,0,0,1.42,17.32,51.43,51.43,0,0,0,4.44,14.22,25.87,25.87,0,0,0,7.86,9.56A19.59,19.59,0,0,0,767,1349a19.83,19.83,0,0,0,11.72-3.45A24.08,24.08,0,0,0,786.51,1336.07Z" transform="translate(-104.73 -692.34)"/><path class="cls-1" d="M941.9,1260.56q-1.92.21-5.51.76a14.42,14.42,0,0,0-6.48,2.69q-2.55,1.86-3.61,6.37a61.18,61.18,0,0,0-1.07,13.27v69.87H913l-60.91-75.59v45.89a56.4,56.4,0,0,0,1.13,13,11.9,11.9,0,0,0,3.69,6.51,17,17,0,0,0,5.93,2.69,62,62,0,0,0,6.47,1.58V1353h-42v-5.38a43.07,43.07,0,0,0,6.17-1,16.31,16.31,0,0,0,5.82-2.45,10.28,10.28,0,0,0,3.69-6q1-4,1-13.54v-46.31a19.66,19.66,0,0,0-1.06-6.51,13.43,13.43,0,0,0-3.35-5.27,18.14,18.14,0,0,0-5.54-3.69,34.45,34.45,0,0,0-7.13-2.1v-5.51h36.8l53.47,66.12v-37q0-8.82-1.17-13.13a12,12,0,0,0-3.73-6.37,17.54,17.54,0,0,0-5.92-2.72,61.77,61.77,0,0,0-6.34-1.55v-5.37h42Z" transform="translate(-104.73 -692.34)"/><path class="cls-1" d="M1070.21,1308.11a24.46,24.46,0,0,1,7.17,7.61,20.52,20.52,0,0,1,2.76,10.79,23.68,23.68,0,0,1-3.14,12.57,21.68,21.68,0,0,1-9,8.1,48.19,48.19,0,0,1-14.3,4.48,121.3,121.3,0,0,1-19,1.31H983.87v-5.38c1.42-.13,3.22-.34,5.38-.62a19.08,19.08,0,0,0,4.54-1,6.61,6.61,0,0,0,3.48-2.72,9.06,9.06,0,0,0,.93-4.38V1270a10,10,0,0,0-.75-4.13c-.51-1.11-1.73-2.07-3.66-2.9a27.36,27.36,0,0,0-5-1.48c-1.88-.39-3.54-.7-5-.93v-5.37H1037q20.05,0,28.94,5.51t8.89,16.26a18.31,18.31,0,0,1-2,8.72,19.5,19.5,0,0,1-5.72,6.51,34.35,34.35,0,0,1-8.06,4.41,70.12,70.12,0,0,1-10.06,3.1V1301a56.25,56.25,0,0,1,11.16,2.38A38.39,38.39,0,0,1,1070.21,1308.11ZM1048,1278.68q0-8.13-4.59-12.67t-13.74-4.55c-.88,0-2,0-3.42.1l-3.61.17V1298h3.58q11.16,0,16.47-5.2T1048,1278.68Zm4.82,47q0-10.22-6.06-15.67t-17.44-5.45c-.87,0-2,0-3.48.1l-3.2.17v35.82q.62,2.57,3.86,4.32a16.23,16.23,0,0,0,7.85,1.76,17.39,17.39,0,0,0,13.34-5.52Q1052.85,1335.66,1052.85,1325.65Z" transform="translate(-104.73 -692.34)"/><path class="cls-1" d="M1182.74,1321.62l-1.92,31.35h-90.07v-5.38q2.41-.19,5.65-.65a22.8,22.8,0,0,0,4.27-.86,6.39,6.39,0,0,0,3.45-2.69,9,9,0,0,0,1-4.41v-69a9.79,9.79,0,0,0-.75-4.1c-.51-1.08-1.73-2.05-3.66-2.93a23.49,23.49,0,0,0-5.13-1.55c-2-.39-3.6-.67-4.79-.86v-5.37h53.68v5.37c-1.47.14-3.2.34-5.2.59a30,30,0,0,0-5.2,1.07,5.61,5.61,0,0,0-3.59,2.79,9.9,9.9,0,0,0-.89,4.3v64.3a32.05,32.05,0,0,0,.62,7.16,6.16,6.16,0,0,0,2.41,3.86,10.48,10.48,0,0,0,5,1.69,80.55,80.55,0,0,0,8.86.38,85,85,0,0,0,10.71-.66c3.47-.43,6-1.38,7.48-2.86a48.19,48.19,0,0,0,7.2-9.88,101.6,101.6,0,0,0,5.89-11.68Z" transform="translate(-104.73 -692.34)"/><path class="cls-1" d="M1274.19,1280.13H1269a36.48,36.48,0,0,0-6.89-11.26q-4.89-5.7-9.72-6.73a30.66,30.66,0,0,0-5.75-.58q-3.69-.11-6.1-.1h-14.2v37.69h10.07a24.72,24.72,0,0,0,6.89-.9,13,13,0,0,0,5.65-3.44,17.59,17.59,0,0,0,3.2-5.58,33.35,33.35,0,0,0,2.1-7h5.24v40.79h-5.24a34.24,34.24,0,0,0-2.1-7.27,20.28,20.28,0,0,0-3.2-6,11.83,11.83,0,0,0-5.38-3.41,24.92,24.92,0,0,0-7.16-.93h-10.07v28.19a29.37,29.37,0,0,0,.66,7,7,7,0,0,0,2.45,4,9.78,9.78,0,0,0,4.72,1.72,61.92,61.92,0,0,0,8.16.42c1.61,0,3.54,0,5.79-.07a53.94,53.94,0,0,0,5.93-.41,37.07,37.07,0,0,0,5.41-1,7.94,7.94,0,0,0,3.75-2,55.84,55.84,0,0,0,7.44-10.3,75,75,0,0,0,5.45-10.37h5l-1.86,30.46H1187.5v-5.38c1.28-.09,3-.27,5.24-.55a20.69,20.69,0,0,0,4.68-1,6.76,6.76,0,0,0,3.52-2.79,9.25,9.25,0,0,0,.89-4.31v-69a9.62,9.62,0,0,0-.76-4.1c-.5-1.08-1.72-2.05-3.65-2.93a24.83,24.83,0,0,0-5-1.51q-3.24-.69-4.89-.9v-5.37h86.69Z" transform="translate(-104.73 -692.34)"/><path class="cls-1" d="M1401.6,1260.56q-1.92.21-5.51.76a14.42,14.42,0,0,0-6.48,2.69c-1.7,1.24-2.9,3.36-3.62,6.37a62,62,0,0,0-1.06,13.27v69.87h-12.27l-60.92-75.59v45.89a55.73,55.73,0,0,0,1.14,13,11.9,11.9,0,0,0,3.69,6.51,17,17,0,0,0,5.92,2.69,62,62,0,0,0,6.48,1.58V1353h-42v-5.38a43,43,0,0,0,6.16-1,16.44,16.44,0,0,0,5.83-2.45,10.22,10.22,0,0,0,3.68-6q1-4,1-13.54v-46.31a19.41,19.41,0,0,0-1.07-6.51,13.3,13.3,0,0,0-3.34-5.27,18.27,18.27,0,0,0-5.54-3.69,34.55,34.55,0,0,0-7.14-2.1v-5.51h36.81l53.46,66.12v-37q0-8.82-1.17-13.13a12,12,0,0,0-3.72-6.37,17.63,17.63,0,0,0-5.92-2.72,62.4,62.4,0,0,0-6.34-1.55v-5.37h42Z" transform="translate(-104.73 -692.34)"/><path class="cls-1" d="M1495.8,1265.25a44.36,44.36,0,0,1,14.47,15.61q5.52,9.75,5.52,23.87,0,12.4-4.93,21.61a43.68,43.68,0,0,1-13.06,15.05,58.87,58.87,0,0,1-18.78,8.72,83.27,83.27,0,0,1-22,2.86h-49.27v-5.38c1.47,0,3.3-.18,5.51-.41a17.28,17.28,0,0,0,4.41-.83,6.58,6.58,0,0,0,3.44-2.79,8.59,8.59,0,0,0,1-4.23V1270a9.79,9.79,0,0,0-.9-4.24,6.63,6.63,0,0,0-3.51-3.06,20.84,20.84,0,0,0-5.55-1.59c-1.95-.27-3.46-.46-4.51-.55v-5.37h52a81.88,81.88,0,0,1,17.85,2.13A55.53,55.53,0,0,1,1495.8,1265.25Zm-14.06,70.08a40.11,40.11,0,0,0,4.93-13.13,88,88,0,0,0,1.55-17.54,70.67,70.67,0,0,0-2.07-17.71,41.23,41.23,0,0,0-6.06-13.64,27.67,27.67,0,0,0-10-8.75,28.84,28.84,0,0,0-13.54-3.1c-1.61,0-3.43,0-5.48.1l-4.58.17V1336a13.36,13.36,0,0,0,.66,4.38,8,8,0,0,0,2.24,3.34,11,11,0,0,0,3.89,2.24,18.94,18.94,0,0,0,6,.79,28.71,28.71,0,0,0,13.37-2.9A22.77,22.77,0,0,0,1481.74,1335.33Z" transform="translate(-104.73 -692.34)"/><path class="cls-1" d="M1612.12,1280.13h-5.24a36.48,36.48,0,0,0-6.89-11.26q-4.89-5.7-9.71-6.73a30.79,30.79,0,0,0-5.76-.58c-2.45-.07-4.49-.1-6.1-.1h-14.19v37.69h10.06a24.67,24.67,0,0,0,6.89-.9,13,13,0,0,0,5.65-3.44,17.38,17.38,0,0,0,3.21-5.58,33.35,33.35,0,0,0,2.1-7h5.23v40.79h-5.23a35.47,35.47,0,0,0-2.1-7.27,20.49,20.49,0,0,0-3.21-6,11.8,11.8,0,0,0-5.37-3.41,25,25,0,0,0-7.17-.93h-10.06v28.19a30,30,0,0,0,.65,7,7,7,0,0,0,2.45,4,9.82,9.82,0,0,0,4.72,1.72,62,62,0,0,0,8.17.42c1.6,0,3.53,0,5.78-.07a53.76,53.76,0,0,0,5.93-.41,37.07,37.07,0,0,0,5.41-1,7.92,7.92,0,0,0,3.76-2,56.8,56.8,0,0,0,7.44-10.3,74.67,74.67,0,0,0,5.44-10.37h5l-1.86,30.46h-91.72v-5.38c1.29-.09,3-.27,5.24-.55a20.68,20.68,0,0,0,4.69-1,6.77,6.77,0,0,0,3.51-2.79,9.12,9.12,0,0,0,.9-4.31v-69a9.78,9.78,0,0,0-.76-4.1c-.51-1.08-1.72-2.05-3.65-2.93a25,25,0,0,0-5-1.51c-2.16-.46-3.79-.76-4.9-.9v-5.37h86.69Z" transform="translate(-104.73 -692.34)"/><path class="cls-1" d="M1739.47,1353h-37.53q-9.7-14.88-16.14-23.71t-16-20.39H1666v29.7a8.75,8.75,0,0,0,.93,4.2,7.1,7.1,0,0,0,3.55,2.89,23.89,23.89,0,0,0,4.1,1.14,45.81,45.81,0,0,0,4.79.79V1353h-52.17v-5.38c1.34-.13,3.09-.33,5.28-.58a19.87,19.87,0,0,0,4.65-.93,6.77,6.77,0,0,0,3.51-2.79,9.12,9.12,0,0,0,.9-4.31v-69a10,10,0,0,0-.76-4.13c-.51-1.11-1.72-2.07-3.65-2.9a30.55,30.55,0,0,0-5.21-1.51c-2-.42-3.57-.71-4.72-.9v-5.37h54.86q18.39,0,27.94,5.75t9.54,17.4q0,10.28-5.89,16.5t-18,9.75q4.68,6.08,10.92,14.06t13,16.33c1.42,1.8,3.37,4,5.82,6.59s4.63,4.19,6.52,4.78a26,26,0,0,0,4,.83c1.63.23,2.79.37,3.48.41Zm-46.93-72.7q0-9.78-5.48-14.3t-15.61-4.51H1666v40.93h5.24q10.13,0,15.71-5.31T1692.54,1280.27Z" transform="translate(-104.73 -692.34)"/></svg>